<?xml version="1.0" standalone="no"?>
<!DOCTYPE svg PUBLIC "-//W3C//DTD SVG 20010904//EN"
 "http://www.w3.org/TR/2001/REC-SVG-20010904/DTD/svg10.dtd">
<svg version="1.0" xmlns="http://www.w3.org/2000/svg"
 width="103.000000pt" height="103.000000pt" viewBox="0 0 103.000000 103.000000"
 preserveAspectRatio="xMidYMid meet">
<metadata>
Created by potrace 1.11, written by Peter Selinger 2001-2013
</metadata>
<g transform="translate(0.000000,103.000000) scale(0.100000,-0.100000)"
fill="#000000" stroke="none">
<path d="M463 1011 c-11 -9 -23 -26 -26 -38 -3 -15 63 -175 202 -490 187 -424
209 -468 234 -477 39 -14 81 10 85 48 2 18 -19 79 -61 175 -36 80 -127 286
-202 456 -75 171 -142 315 -148 322 -20 20 -62 22 -84 4z"/>
<path d="M282 519 c-23 -9 -31 -24 -146 -287 -73 -165 -78 -197 -35 -221 49
-27 76 -9 116 77 19 42 41 91 48 107 89 193 113 259 103 286 -11 32 -52 50
-86 38z"/>
</g>
</svg>
